<svg xmlns="http://www.w3.org/2000/svg" viewBox="0 0 42 42"><defs><style>.cls-1{fill:#ff5100;}.cls-2{fill:#fff;}</style></defs><title>social_linkedin</title><g id="Layer_2" data-name="Layer 2"><g id="Layer_1-2" data-name="Layer 1"><circle class="cls-1" cx="21" cy="21" r="21"/><path class="cls-2" d="M13.87,15.13a2.12,2.12,0,0,1,1.49-3.6,2.15,2.15,0,0,1,2.11,2.11,2.13,2.13,0,0,1-2.11,2.11A2.07,2.07,0,0,1,13.87,15.13ZM13.52,29V17.35h3.64V29Zm13.6,0v-5.7a6.17,6.17,0,0,0-.24-2,1.64,1.64,0,0,0-1.68-1.06,1.85,1.85,0,0,0-1.76.94,4.37,4.37,0,0,0-.39,2.07V29H19.46V17.35h3.48V19h0a3,3,0,0,1,1.25-1.29A3.8,3.8,0,0,1,26.41,17,3.9,3.9,0,0,1,30,18.64a7.93,7.93,0,0,1,.78,4V29Z"/></g></g></svg>