<svg xmlns="http://www.w3.org/2000/svg" viewBox="0 0 42 42"><defs><style>.cls-1{fill:#ff5100;}.cls-2{fill:#fff;}</style></defs><title>social_twitter</title><g id="Layer_2" data-name="Layer 2"><g id="Layer_1-2" data-name="Layer 1"><circle class="cls-1" cx="21" cy="21" r="21"/><path class="cls-2" d="M29,17.73a11.64,11.64,0,0,1-1.37,5.43,11.14,11.14,0,0,1-3.94,4.41,11.25,11.25,0,0,1-6.37,1.84A11.34,11.34,0,0,1,11,27.57a9.62,9.62,0,0,0,1,0,8.07,8.07,0,0,0,5.11-1.76,3.78,3.78,0,0,1-2.4-.8,4,4,0,0,1-1.42-2,6.34,6.34,0,0,0,.74,0A5.06,5.06,0,0,0,15.1,23a4.13,4.13,0,0,1-2.34-1.44,3.93,3.93,0,0,1-.94-2.58v-.08a3.87,3.87,0,0,0,1.84.55,4.54,4.54,0,0,1-1.33-1.49,3.88,3.88,0,0,1-.51-2,4,4,0,0,1,.59-2,11.18,11.18,0,0,0,3.73,3,11.45,11.45,0,0,0,4.7,1.25,6,6,0,0,1-.07-.94,4.11,4.11,0,0,1,.54-2.05,4,4,0,0,1,1.49-1.5,3.89,3.89,0,0,1,2-.55,4,4,0,0,1,1.66.35,4.55,4.55,0,0,1,1.35.94,8.47,8.47,0,0,0,2.61-1,4.1,4.1,0,0,1-1.79,2.27A9,9,0,0,0,31,15.07a8.81,8.81,0,0,1-2.07,2.15A2.11,2.11,0,0,1,29,17.73Z"/></g></g></svg>