<svg xmlns="http://www.w3.org/2000/svg" width="40" height="40"  viewBox="0 0 40 40" >
    <g fill="#0070C0" fill-rule="nonzero">
        <path d="M28.408 4.104A17.919 17.919 0 0 0 20.033 2c-9.939-.002-17.998 8.098-18 18.092 0 4.717 1.83 9.248 5.104 12.628l-.752 5.378a.713.713 0 0 0 .58.822.706.706 0 0 0 .512-.109l4.086-2.725c8.784 4.678 19.675 1.31 24.327-7.522 4.651-8.832 1.302-19.783-7.482-24.46zm3.421 27.702a16.533 16.533 0 0 1-19.946 2.825.706.706 0 0 0-.71 0l-3.199 2.09.617-4.144a.716.716 0 0 0-.205-.606c-6.52-6.464-6.593-17.018-.164-23.573 6.429-6.554 16.925-6.628 23.444-.164 6.519 6.464 6.592 17.018.163 23.572z"/>
        <path d="M24.098 26.5h-.589V15.958a.711.711 0 0 0-.71-.713h-6.121c-.392 0-.71.32-.71.713v2.568c0 .394.318.713.71.713h.596V26.5h-.596c-.392 0-.71.32-.71.713v2.568c0 .394.318.713.71.713h7.42c.392 0 .71-.319.71-.713v-2.568a.711.711 0 0 0-.71-.713zm-6.71 2.568v-1.141h.595c.392 0 .71-.32.71-.714v-8.687a.711.711 0 0 0-.71-.713h-.596v-1.141h4.696v10.541c0 .394.318.714.71.714h.588l.008 1.141h-6.002zM20.033 8.277a2.98 2.98 0 0 0-2.972 2.988 2.98 2.98 0 0 0 2.972 2.989 2.98 2.98 0 0 0 2.972-2.989 2.98 2.98 0 0 0-2.972-2.988zm0 4.557c-.858 0-1.553-.699-1.553-1.562a1.558 1.558 0 0 1 1.546-1.569h.007v.007c.858 0 1.554.7 1.554 1.562 0 .863-.696 1.562-1.554 1.562z"/>
    </g>
</svg>
